<?xml version="1.0" standalone="no"?>
<!DOCTYPE svg PUBLIC "-//W3C//DTD SVG 1.1//EN" "http://www.w3.org/Graphics/SVG/1.1/DTD/svg11.dtd" >
<svg xmlns="http://www.w3.org/2000/svg" xmlns:xlink="http://www.w3.org/1999/xlink" version="1.1" viewBox="-1062 0 1497 1000">
  <g transform="matrix(1 0 0 -1 0 800)">
   <path fill="currentColor"
d="M-1050.64 860.286l37.1846 54.043c2.29688 3.33691 7.27246 3.34375 9.66016 0.304688l45.2256 -57.542c2.13086 -2.71191 1.47754 -6.79004 -1.39258 -8.70215c-0.646484 -0.429688 -1.41699 -0.740234 -2.13867 -0.886719l-7.70605 -1.55371
c-2.23438 -0.450195 -4.58398 0.498047 -5.90234 2.17188l-24.293 30.8789l1.17383 -123.924c0.0332031 -3.49316 -3.05371 -6.22266 -6.31445 -6.04785l-7.37109 0.387695c-3.27246 0.170898 -5.69824 3.08691 -5.68457 6.01855l0.578125 122.085l-19.79 -28.7061
c-1.9502 -2.84082 -6.04004 -3.42773 -8.71973 -1.25293c-0.410156 0.331055 -1.0498 1.10352 -1.08984 1.15723l-3.35059 4.66504c-1.5498 2.1582 -1.26953 5.16016 -0.0693359 6.90332z" />
  </g>

</svg>
